HIERARCHY
ROOT root
{
	OFFSET	0	13.1	24.9
	CHANNELS 6  Xposition Yposition Zposition Xrotation Yrotation Zrotation
	JOINT spine_1
	{
		OFFSET	0	9.99999	0
		CHANNELS 3  Xrotation Yrotation Zrotation
		JOINT spine_2
		{
			OFFSET	0	112	-10
			CHANNELS 3  Xrotation Yrotation Zrotation
			JOINT spine_3
			{
				OFFSET	0	206.5	19.3
				CHANNELS 3  Xrotation Yrotation Zrotation
				JOINT spine_4
				{
					OFFSET	0	110.4	14.6
					CHANNELS 3  Xrotation Yrotation Zrotation
					JOINT neck_1
					{
						OFFSET	0	71.8	-50.3
						CHANNELS 3  Xrotation Yrotation Zrotation
						JOINT neck_2
						{
							OFFSET	0	86.2	-25.8
							CHANNELS 3  Xrotation Yrotation Zrotation
							JOINT head_ee
							{
								OFFSET	0	179.8	-8.7
								CHANNELS 3  Xrotation Yrotation Zrotation
								End Site
								{
									OFFSET	1	0	0
								}
							}
						}
					}
					JOINT left_clavicle
					{
						OFFSET	-43.2	22.4	-70.8
						CHANNELS 3  Xrotation Yrotation Zrotation
						JOINT left_shoulder
						{
							OFFSET	-93.9	-5.79999	48.7
							CHANNELS 3  Xrotation Yrotation Zrotation
							JOINT left_elbow
							{
								OFFSET	-291.4	-30.8	15.2
								CHANNELS 3  Xrotation Yrotation Zrotation
								JOINT left_lowarm_twist
								{
									OFFSET	-110.7	-3.89999	13.6
									CHANNELS 3  Xrotation Yrotation Zrotation
									JOINT left_hand
									{
										OFFSET	-110.7	-3.89999	13.6
										CHANNELS 3  Xrotation Yrotation Zrotation
										JOINT left_ee
										{
											OFFSET	-80.8	-5.10001	12.1
											CHANNELS 3  Xrotation Yrotation Zrotation
											End Site
											{
												OFFSET	1	0	0
											}
										}
									}
								}
							}
						}
					}
					JOINT right_clavicle
					{
						OFFSET	43.2	22.4	-70.8
						CHANNELS 3  Xrotation Yrotation Zrotation
						JOINT right_shoulder
						{
							OFFSET	93.9	-5.79999	48.7
							CHANNELS 3  Xrotation Yrotation Zrotation
							JOINT right_elbow
							{
								OFFSET	291.4	-30.8	15.2
								CHANNELS 3  Xrotation Yrotation Zrotation
								JOINT right_lowarm_twist
								{
									OFFSET	110.7	-3.89999	13.6
									CHANNELS 3  Xrotation Yrotation Zrotation
									JOINT right_hand
									{
										OFFSET	110.7	-3.89999	13.6
										CHANNELS 3  Xrotation Yrotation Zrotation
										JOINT right_ee
										{
											OFFSET	80.8	-5.10001	12.1
											CHANNELS 3  Xrotation Yrotation Zrotation
											End Site
											{
												OFFSET	1	0	0
											}
										}
									}
								}
							}
						}
					}
				}
			}
		}
	}
	JOINT left_hip
	{
		OFFSET	-82.8	-127.5	0.300001
		CHANNELS 3  Xrotation Yrotation Zrotation
		JOINT left_knee
		{
			OFFSET	-28.2	-396.7	2.2
			CHANNELS 3  Xrotation Yrotation Zrotation
			JOINT left_ankle
			{
				OFFSET	-11.7	-411.3	35.4
				CHANNELS 3  Xrotation Yrotation Zrotation
				JOINT left_toes
				{
					OFFSET	0	-60	-88.6
					CHANNELS 3  Xrotation Yrotation Zrotation
					JOINT left_foot_ee
					{
						OFFSET	-22.5	-16.5	-42.2
						CHANNELS 3  Xrotation Yrotation Zrotation
						End Site
						{
							OFFSET	1	0	0
						}
					}
				}
			}
		}
	}
	JOINT right_hip
	{
		OFFSET	82.8	-127.5	0.300001
		CHANNELS 3  Xrotation Yrotation Zrotation
		JOINT right_knee
		{
			OFFSET	28.2	-396.7	2.2
			CHANNELS 3  Xrotation Yrotation Zrotation
			JOINT right_ankle
			{
				OFFSET	11.7	-411.3	35.4
				CHANNELS 3  Xrotation Yrotation Zrotation
				JOINT right_toes
				{
					OFFSET	0	-60	-88.6
					CHANNELS 3  Xrotation Yrotation Zrotation
					JOINT right_foot_ee
					{
						OFFSET	22.5	-16.5	-42.2
						CHANNELS 3  Xrotation Yrotation Zrotation
						End Site
						{
							OFFSET	1	0	0
						}
					}
				}
			}
		}
	}
}
MOTION
Frames: 14
Frame Time: 0.02
2859.59081785 700.879 -1576.0271871 9.16979156346 78.2538439173 -2.68671586407 -1.82429 -0.00947819 -1.56789 -1.82293 0.0902973 -1.56531 -1.82429 0.465291 -1.4973 -1.82735 0.223011 -1.55198 -4.42946 7.78821 0.030598 -4.37313 14.2549 1.3137 -0.0 0.0 -0.0 4.89128 16.1883 9.63013 -3.73229 -55.1055 53.8952 0.773037 -20.9538 0.142954 -76.0465 -7.31851 5.31548 -1.2236 21.7635 1.56184 -0.0 0.0 -0.0 9.63071 28.0708 -17.8081 -14.6542 9.19605 -52.7736 1.41 34.9313 -0.443664 5.39964 -0.15871 0.671207 -1.59942 -4.15443 8.83281 0.0 0.0 0.0 9.65712 15.4452 -4.64639 -12.5102 0.309683 1.8911 23.7052 18.3709 -3.24513 -4.346 0.0 0.0 -0.0 0.0 -0.0 27.9063 23.7481 -10.4412 -56.4456 1.82864 -8.12234 -22.7685 -25.4663 -3.57749 -32.2811 0.0 0.0 0.0 0.0 0.0 
2845.96308463 702.407 -1571.53239078 9.74906863559 77.029911453 -2.94473583072 -1.67903 0.0977282 -1.75427 -1.67734 0.209142 -1.7445 -1.68254 0.619864 -1.64405 -1.68614 0.352479 -1.72128 -4.55702 8.00573 0.574624 -4.50535 14.2537 1.92114 -0.0 0.0 -0.0 5.13587 16.0735 10.0244 -2.67252 -55.2487 52.8574 0.784403 -21.2346 0.147044 -76.4799 -7.37382 5.31328 -1.27832 22.2768 1.47048 -0.0 0.0 -0.0 9.45332 27.9689 -17.4257 -15.9869 9.16111 -53.2848 1.33246 33.4256 -0.400099 5.32032 -0.156838 0.661247 -1.44324 -3.42251 8.12702 0.0 0.0 0.0 8.59572 15.4985 -5.03744 -11.9868 0.305052 1.81092 24.4088 17.4242 -3.31948 -3.95918 0.0 0.0 -0.0 0.0 -0.0 29.8256 22.1716 -10.5182 -56.2421 1.80816 -8.09859 -21.0014 -25.1115 -3.29243 -35.5618 0.0 0.0 0.0 0.0 0.0 
2831.14711198 696.814 -1567.45244632 9.29216587979 76.070082005 -2.41955896282 -1.55117 -0.0236626 -1.82401 -1.54933 0.0924324 -1.82182 -1.55086 0.520954 -1.74822 -1.55505 0.238365 -1.80853 -4.92246 8.19753 0.600541 -4.87605 14.6201 2.02115 -0.0 0.0 -0.0 5.33266 15.9214 10.3446 -1.52106 -55.5772 51.0735 0.838758 -22.5625 0.167318 -76.8041 -7.41518 5.31135 -1.35056 22.6379 1.2131 -0.0 0.0 -0.0 9.1899 27.167 -16.9317 -19.0623 8.72865 -55.8051 1.2597 31.9635 -0.360791 5.24135 -0.15496 0.651335 -1.33645 -2.91595 7.64431 0.0 0.0 0.0 6.84407 15.4256 -3.95807 -11.7762 0.302982 1.77867 24.6271 16.6109 -3.33704 -3.6616 0.0 0.0 -0.0 0.0 -0.0 34.5314 18.2239 -14.1347 -54.4955 1.63583 -7.89176 -19.744 -25.6113 -3.10201 -37.875 0.0 0.0 0.0 0.0 0.0 
2811.04755096 698.374 -1560.4095201 8.18024240633 76.2248249587 -1.82661178352 -1.23416 -0.0239234 -1.6257 -1.2327 0.0795587 -1.62393 -1.23394 0.452947 -1.56152 -1.23729 0.200683 -1.61345 -5.17774 8.5057 0.921632 -5.1351 14.9716 2.43101 -0.0 0.0 -0.0 5.20777 16.0887 10.1397 -1.41825 -55.5232 49.6074 0.874791 -23.4291 0.181395 -77.7751 -7.53896 5.30417 -1.64119 23.2673 -0.173401 -0.0 0.0 -0.0 8.70137 27.0743 -15.8593 -21.0358 8.23677 -56.8938 1.20225 30.7752 -0.330887 6.10864 -0.174826 0.760341 -1.24357 -2.72274 7.1113 0.0 0.0 0.0 5.69784 15.3424 -3.23819 -11.8306 0.303529 1.78701 23.4586 16.1656 -3.19242 -3.703 0.0 0.0 -0.0 0.0 -0.0 33.8697 16.0545 -15.5572 -53.3673 1.52791 -7.75544 -18.8988 -26.6595 -2.98519 -38.4883 0.0 0.0 0.0 0.0 0.0 
2750.26937993 699.477 -1553.9780013 11.9653133068 76.7287847418 -5.3525448053 -0.906428 -0.305404 -1.59791 -0.90503 -0.203119 -1.6141 -0.898154 0.166067 -1.61833 -0.901798 -0.0915669 -1.62425 -5.26035 10.1003 0.499633 -5.19861 18.2367 2.29501 -0.0 0.0 -0.0 4.84528 20.2776 9.48533 1.25546 -52.6145 45.9179 1.62763 -38.8755 0.574416 -85.4034 -8.50232 5.17449 -3.97961 30.6631 -9.06367 -0.0 0.0 -0.0 7.74887 22.4433 -14.2134 -25.8216 4.55598 -61.8242 0.905371 24.1557 -0.193732 6.23258 -0.17753 0.775944 -1.59877 -5.86199 8.03695 0.0 0.0 0.0 -2.2238 16.3682 -1.30972 -7.07145 0.225903 1.06106 19.3075 10.6949 -2.64945 -4.17832 0.0 0.0 -0.0 0.0 -0.0 38.6746 14.1343 -13.0527 -44.3089 0.763398 -6.59067 -20.3865 -23.3229 -3.1678 -40.4638 0.0 0.0 0.0 0.0 0.0 
2732.4422711 693.691 -1539.27167171 13.2429968799 77.909598979 -7.58759501836 -0.946341 -0.359999 -1.52687 -0.945082 -0.262123 -1.54668 -0.93688 0.0944134 -1.56588 -0.940269 -0.154043 -1.56115 -5.5053 10.3918 0.75028 -5.45041 18.6159 2.63804 -0.0 0.0 -0.0 5.09186 20.2556 9.854 1.83389 -52.2214 45.6234 1.78181 -41.4297 0.673865 -86.1423 -8.5944 5.15508 -4.2246 30.9441 -10.1861 -0.0 0.0 -0.0 7.32003 21.8175 -13.3265 -27.4813 3.74721 -62.3837 0.837705 22.537 -0.166914 6.24276 -0.17775 0.777225 -1.68011 -6.55544 8.25059 0.0 0.0 0.0 -3.59651 16.5604 -1.01703 -6.29979 0.207645 0.944049 18.8411 9.81898 -2.58867 -4.2458 0.0 0.0 -0.0 0.0 -0.0 39.6899 14.0686 -12.4996 -40.9671 0.529437 -6.13312 -20.4228 -22.6755 -3.16435 -40.4182 0.0 0.0 0.0 0.0 0.0 
2716.97163372 701.611 -1534.94529226 10.1267139507 78.7148931669 -4.17123697559 -0.758608 -0.423737 -1.67708 -0.757099 -0.316177 -1.70063 -0.746415 0.0708114 -1.72832 -0.750526 -0.202992 -1.71782 -5.23011 11.0341 1.73161 -5.16127 19.0404 3.70608 -0.0 0.0 -0.0 5.26082 20.2265 10.1077 2.36459 -51.9779 45.2882 1.89907 -43.2466 0.752847 -85.4548 -8.50872 5.17318 -4.16568 29.035 -11.1199 -0.0 0.0 -0.0 6.99932 21.0688 -12.6886 -28.5465 3.24426 -62.8932 0.762848 20.7012 -0.139331 6.56627 -0.184642 0.817976 -1.74212 -8.19372 7.8877 0.0 0.0 0.0 -4.6358 18.4077 0.799958 -6.38461 0.209729 0.9569 19.4613 9.51622 -2.66593 -3.9273 0.0 0.0 -0.0 0.0 -0.0 40.2746 13.7236 -12.2738 -35.7028 0.216255 -5.38738 -19.9456 -22.11 -3.08246 -40.1581 0.0 0.0 0.0 0.0 0.0 
2715.57308391 701.611 -1539.83057222 9.61857137082 78.1163853051 -3.65253556998 -0.758608 -0.423737 -1.67708 -0.757099 -0.316177 -1.70063 -0.746415 0.0708114 -1.72832 -0.750526 -0.202992 -1.71782 -5.23011 11.0341 1.73161 -5.16127 19.0404 3.70608 -0.0 0.0 -0.0 5.26082 20.2265 10.1077 2.36459 -51.9779 45.2882 1.89907 -43.2466 0.752847 -85.4548 -8.50872 5.17318 -4.16568 29.035 -11.1199 -0.0 0.0 -0.0 6.99932 21.0688 -12.6886 -28.5465 3.24426 -62.8932 0.762848 20.7012 -0.139331 6.56627 -0.184642 0.817976 -1.74212 -8.19372 7.8877 0.0 0.0 0.0 -4.6358 18.4077 0.799958 -6.38461 0.209729 0.9569 19.4613 9.51622 -2.66593 -3.9273 0.0 0.0 -0.0 0.0 -0.0 40.2746 13.7236 -12.2738 -35.7028 0.216255 -5.38738 -19.9456 -22.11 -3.08246 -40.1581 0.0 0.0 0.0 0.0 0.0 
2700.10020318 701.669 -1535.30403984 6.74832656599 77.9864415472 -1.84786048748 -0.6551 -0.441418 -1.61234 -0.653717 -0.33794 -1.63715 -0.642876 0.0324142 -1.67134 -0.6467 -0.231913 -1.6555 -5.12066 11.4795 2.43449 -5.04168 19.3234 4.4806 -0.0 0.0 -0.0 5.60527 20.2307 10.6243 3.1477 -51.7765 45.5705 1.98613 -44.5292 0.813206 -84.9739 -8.44866 5.18522 -4.12722 27.7011 -11.7742 -0.0 0.0 -0.0 6.82152 20.7924 -12.3235 -29.2799 2.90343 -63.2328 0.710792 19.3975 -0.121483 6.79461 -0.189367 0.846761 -1.79076 -9.41915 7.62418 0.0 0.0 0.0 -5.38084 19.6796 2.02035 -6.45301 0.211396 0.967263 19.891 9.31209 -2.71914 -3.74119 0.0 0.0 -0.0 0.0 -0.0 40.6927 13.4773 -12.1309 -31.3305 0.00918917 -4.74867 -19.4811 -21.7149 -3.00524 -39.9396 0.0 0.0 0.0 0.0 0.0 
2686.57147612 700.976 -1542.31087885 5.00398101854 76.8620248853 -0.323608942252 -0.586956 -0.41546 -1.63948 -0.585514 -0.310309 -1.66258 -0.575342 0.0630044 -1.69011 -0.57927 -0.204669 -1.67886 -5.12095 11.8045 2.97604 -5.03551 19.5194 5.08612 -0.0 0.0 -0.0 5.84898 20.3133 10.9868 3.97779 -51.684 45.8023 2.05949 -45.5678 0.865128 -84.6385 -8.40671 5.19332 -4.10482 26.7997 -12.2309 -0.0 0.0 -0.0 6.89221 20.56 -12.4972 -29.6268 2.81611 -63.7319 0.677384 18.5496 -0.110621 6.95745 -0.192667 0.867301 -1.82107 -10.3201 7.39144 0.0 0.0 0.0 -5.99498 20.5633 2.93122 -6.52355 0.213102 0.977955 20.1903 9.16449 -2.75604 -3.61149 0.0 0.0 -0.0 0.0 -0.0 41.0075 13.4235 -11.7025 -27.7315 -0.124248 -4.21255 -19.0997 -21.4145 -2.94238 -39.7766 0.0 0.0 0.0 0.0 0.0 
2667.73054573 696.697 -1545.48465729 2.7147008936 76.5770107574 1.68660591878 -0.472508 -0.359776 -1.50875 -0.47128 -0.263053 -1.52858 -0.463332 0.0766103 -1.54915 -0.466642 -0.168981 -1.54181 -5.15785 12.0356 3.39828 -5.06783 19.6372 5.55932 -0.0 0.0 -0.0 6.12625 20.3786 11.4006 4.88192 -51.6421 46.1898 2.11675 -46.3526 0.906288 -84.4093 -8.378 5.19871 -4.09616 26.2092 -12.5624 -0.0 0.0 -0.0 6.80497 20.5069 -12.3112 -29.9536 2.72459 -63.8905 0.653867 17.9476 -0.103257 7.07191 -0.194951 0.881743 -1.83922 -10.9914 7.18769 0.0 0.0 0.0 -6.42722 21.1408 3.24985 -6.59291 0.214766 0.988468 20.3676 9.1041 -2.77787 -3.52996 0.0 0.0 -0.0 0.0 -0.0 41.5659 13.4215 -11.1273 -24.8547 -0.206516 -3.77876 -18.8139 -21.1858 -2.89539 -39.6553 0.0 0.0 0.0 0.0 0.0 
2653.74531248 694.418 -1548.31364637 0.485162196992 75.4493476529 3.0115009033 -0.387018 -0.251582 -1.41468 -0.385919 -0.161062 -1.42781 -0.381175 0.152151 -1.42879 -0.384017 -0.0753853 -1.43489 -5.27046 12.2156 3.76108 -5.17885 19.7185 5.97415 -0.0 0.0 -0.0 6.4012 20.4655 11.8097 5.69563 -51.5714 46.5734 2.18526 -47.2629 0.956241 -84.2456 -8.35749 5.20249 -4.10383 25.876 -12.821 -0.0 0.0 -0.0 6.74689 20.355 -12.1971 -30.1443 2.6993 -64.2049 0.638627 17.5552 -0.0986103 7.15691 -0.19663 0.892472 -1.8388 -11.4628 6.95956 0.0 0.0 0.0 -7.50029 21.4162 3.05821 -6.91936 0.22243 1.03798 20.6446 8.99361 -2.81188 -3.47122 0.0 0.0 -0.0 0.0 -0.0 42.9553 13.4384 -10.2113 -21.7452 -0.270821 -3.30599 -18.6009 -20.983 -2.86008 -39.5941 0.0 0.0 0.0 0.0 0.0 
2608.60714965 683.917 -1540.84758409 2.52101942456 77.2373814866 0.651089628421 -0.599865 -0.106842 -1.37363 -0.598816 -0.0192261 -1.37764 -0.597712 0.284879 -1.34801 -0.600242 0.0684325 -1.37607 -6.64298 12.131 4.35885 -6.59247 19.3621 6.75945 -0.0 0.0 -0.0 6.97873 22.114 12.5404 8.34837 -49.5116 47.3702 2.4613 -50.6344 1.16449 -84.3568 -8.37143 5.19993 -4.18688 25.8274 -13.3313 -0.0 0.0 -0.0 6.63059 19.6927 -11.9978 -31.0532 2.69131 -65.1499 0.7157 19.5213 -0.123118 7.35381 -0.200455 0.917333 -1.62576 -11.812 5.43518 0.0 0.0 0.0 -9.26875 21.8529 3.34333 -10.0894 0.282128 1.5207 23.0015 7.54314 -3.09597 -2.9174 0.0 0.0 -0.0 0.0 -0.0 44.338 12.9996 -9.65659 -14.3214 -0.320053 -2.16879 -18.0301 -20.6368 -2.76789 -39.655 0.0 0.0 0.0 0.0 0.0 
2559.11095326 656.664 -1518.74455358 1.93433695415 81.2182061544 -0.720880062556 -0.629244 -0.103041 -1.16083 -0.628495 -0.0289699 -1.16504 -0.627433 0.229096 -1.14266 -0.629252 0.0457711 -1.1645 -8.68025 10.8028 4.63159 -8.68169 17.023 7.02904 -0.0 0.0 -0.0 7.48106 24.9651 12.9654 14.1888 -43.9689 54.2357 2.77036 -53.9103 1.40904 -85.8701 -8.56051 5.16237 -3.993 26.5271 -11.7705 -0.0 0.0 -0.0 6.47242 19.5599 -11.6644 -31.0332 3.68713 -64.5384 0.854291 22.9374 -0.173325 7.50693 -0.203371 0.936675 -0.722413 -11.4704 -0.146005 0.0 0.0 0.0 -9.0907 22.1987 4.00343 -19.577 0.300432 2.97463 35.3138 -0.921763 -4.45686 -1.38105 0.0 0.0 -0.0 0.0 -0.0 40.7662 13.3993 -9.23923 -7.89607 -0.24367 -1.18636 -14.9835 -20.5421 -2.29456 -38.1215 0.0 0.0 0.0 0.0 0.0 
